<?xml version="1.0" encoding="UTF-8"?>
<svg version="1.1" xmlns="http://www.w3.org/2000/svg" width="256" height="256">
<path d="M0 0 C56.76 0 113.52 0 172 0 C172 56.76 172 113.52 172 172 C171.01 172 170.02 172 169 172 C169 172.99 169 173.98 169 175 C168.01 175 167.02 175 166 175 C166 175.99 166 176.98 166 178 C165.01 178 164.02 178 163 178 C163 179.32 163 180.64 163 182 C162.01 182 161.02 182 160 182 C160 182.99 160 183.98 160 185 C159.01 185 158.02 185 157 185 C157 185.99 157 186.98 157 188 C156.01 188 155.02 188 154 188 C154 188.99 154 189.98 154 191 C153.01 191 152.02 191 151 191 C151 191.99 151 192.98 151 194 C150.01 194 149.02 194 148 194 C148 194.99 148 195.98 148 197 C146.68 197 145.36 197 144 197 C144 198.98 144 200.96 144 203 C143.01 203 142.02 203 141 203 C141 204.32 141 205.64 141 207 C140.01 207 139.02 207 138 207 C138 207.99 138 208.98 138 210 C137.01 210 136.02 210 135 210 C135 210.99 135 211.98 135 213 C134.01 213 133.02 213 132 213 C132 213.99 132 214.98 132 216 C131.01 216 130.02 216 129 216 C129 216.99 129 217.98 129 219 C128.01 219 127.02 219 126 219 C126 219.99 126 220.98 126 222 C125.01 222 124.02 222 123 222 C123 222.99 123 223.98 123 225 C121.68 225 120.36 225 119 225 C119 225.99 119 226.98 119 228 C118.01 228 117.02 228 116 228 C116 229.32 116 230.64 116 232 C115.01 232 114.02 232 113 232 C113 232.99 113 233.98 113 235 C112.01 235 111.02 235 110 235 C110 235.99 110 236.98 110 238 C109.01 238 108.02 238 107 238 C107 238.99 107 239.98 107 241 C106.01 241 105.02 241 104 241 C104 241.99 104 242.98 104 244 C103.01 244 102.02 244 101 244 C101 244.99 101 245.98 101 247 C100.01 247 99.02 247 98 247 C98 247.99 98 248.98 98 250 C96.68 250 95.36 250 94 250 C94 250.99 94 251.98 94 253 C93.01 253 92.02 253 91 253 C91 253.99 91 254.98 91 256 C88.69 256 86.38 256 84 256 C84 200.56 84 145.12 84 88 C28.56 88 -26.88 88 -84 88 C-84 85.69 -84 83.38 -84 81 C-83.01 81 -82.02 81 -81 81 C-81 80.01 -81 79.02 -81 78 C-80.01 78 -79.02 78 -78 78 C-78 76.68 -78 75.36 -78 74 C-77.01 74 -76.02 74 -75 74 C-75 73.01 -75 72.02 -75 71 C-74.01 71 -73.02 71 -72 71 C-72 70.01 -72 69.02 -72 68 C-71.01 68 -70.02 68 -69 68 C-69 67.01 -69 66.02 -69 65 C-68.01 65 -67.02 65 -66 65 C-66 64.01 -66 63.02 -66 62 C-65.01 62 -64.02 62 -63 62 C-63 61.01 -63 60.02 -63 59 C-61.68 59 -60.36 59 -59 59 C-59 58.01 -59 57.02 -59 56 C-58.01 56 -57.02 56 -56 56 C-56 55.01 -56 54.02 -56 53 C-54.02 53 -52.04 53 -50 53 C-50 51.68 -50 50.36 -50 49 C-49.01 49 -48.02 49 -47 49 C-47 48.01 -47 47.02 -47 46 C-46.01 46 -45.02 46 -44 46 C-44 45.01 -44 44.02 -44 43 C-43.01 43 -42.02 43 -41 43 C-41 42.01 -41 41.02 -41 40 C-40.01 40 -39.02 40 -38 40 C-38 39.01 -38 38.02 -38 37 C-37.01 37 -36.02 37 -35 37 C-35 36.01 -35 35.02 -35 34 C-33.68 34 -32.36 34 -31 34 C-31 33.01 -31 32.02 -31 31 C-30.01 31 -29.02 31 -28 31 C-28 30.01 -28 29.02 -28 28 C-27.01 28 -26.02 28 -25 28 C-25 26.68 -25 25.36 -25 24 C-24.01 24 -23.02 24 -22 24 C-22 23.01 -22 22.02 -22 21 C-21.01 21 -20.02 21 -19 21 C-19 20.01 -19 19.02 -19 18 C-18.01 18 -17.02 18 -16 18 C-16 17.01 -16 16.02 -16 15 C-15.01 15 -14.02 15 -13 15 C-13 14.01 -13 13.02 -13 12 C-12.01 12 -11.02 12 -10 12 C-10 11.01 -10 10.02 -10 9 C-8.68 9 -7.36 9 -6 9 C-6 8.01 -6 7.02 -6 6 C-5.01 6 -4.02 6 -3 6 C-3 5.01 -3 4.02 -3 3 C-2.01 3 -1.02 3 0 3 C0 2.01 0 1.02 0 0 Z " fill="#6E39FF" transform="translate(84,0)"/>
</svg>
