<?xml version="1.0" encoding="UTF-8"?>
<svg version="1.1" xmlns="http://www.w3.org/2000/svg" width="256" height="256">
<path d="M0 0 C0.96713606 -0.0034177 1.93427211 -0.0068354 2.93071532 -0.01035666 C6.18000033 -0.01695915 9.4284641 0.00508015 12.67767334 0.0269165 C15.00335673 0.02804447 17.32904156 0.02741212 19.65472412 0.02514648 C25.97672385 0.02399642 32.29842147 0.04755336 38.62035084 0.07544231 C44.55530262 0.09787894 50.49024248 0.10193273 56.42523095 0.10604981 C68.18065947 0.11480441 79.93597697 0.14142441 91.69134521 0.17926025 C103.11061049 0.2159761 114.52984545 0.24424406 125.94915771 0.2612915 C126.66021644 0.26236349 127.37127516 0.26343548 128.10388112 0.26453996 C134.28906522 0.27379134 140.47425017 0.28240254 146.65943527 0.29095078 C173.29289777 0.32858975 199.92606598 0.40827118 226.55950928 0.48101807 C226.55950928 57.24101807 226.55950928 114.00101807 226.55950928 172.48101807 C225.56950928 172.48101807 224.57950928 172.48101807 223.55950928 172.48101807 C223.55950928 173.47101807 223.55950928 174.46101807 223.55950928 175.48101807 C222.56950928 175.48101807 221.57950928 175.48101807 220.55950928 175.48101807 C220.55950928 176.47101807 220.55950928 177.46101807 220.55950928 178.48101807 C219.56950928 178.48101807 218.57950928 178.48101807 217.55950928 178.48101807 C217.55950928 179.80101807 217.55950928 181.12101807 217.55950928 182.48101807 C216.56950928 182.48101807 215.57950928 182.48101807 214.55950928 182.48101807 C214.55950928 183.47101807 214.55950928 184.46101807 214.55950928 185.48101807 C213.56950928 185.48101807 212.57950928 185.48101807 211.55950928 185.48101807 C211.55950928 186.47101807 211.55950928 187.46101807 211.55950928 188.48101807 C210.56950928 188.48101807 209.57950928 188.48101807 208.55950928 188.48101807 C208.55950928 189.47101807 208.55950928 190.46101807 208.55950928 191.48101807 C207.56950928 191.48101807 206.57950928 191.48101807 205.55950928 191.48101807 C205.55950928 192.47101807 205.55950928 193.46101807 205.55950928 194.48101807 C204.56950928 194.48101807 203.57950928 194.48101807 202.55950928 194.48101807 C202.55950928 195.47101807 202.55950928 196.46101807 202.55950928 197.48101807 C201.23950928 197.48101807 199.91950928 197.48101807 198.55950928 197.48101807 C198.55950928 199.46101807 198.55950928 201.44101807 198.55950928 203.48101807 C197.56950928 203.48101807 196.57950928 203.48101807 195.55950928 203.48101807 C195.55950928 204.80101807 195.55950928 206.12101807 195.55950928 207.48101807 C194.56950928 207.48101807 193.57950928 207.48101807 192.55950928 207.48101807 C192.55950928 208.47101807 192.55950928 209.46101807 192.55950928 210.48101807 C191.56950928 210.48101807 190.57950928 210.48101807 189.55950928 210.48101807 C189.55950928 211.47101807 189.55950928 212.46101807 189.55950928 213.48101807 C188.56950928 213.48101807 187.57950928 213.48101807 186.55950928 213.48101807 C186.55950928 214.47101807 186.55950928 215.46101807 186.55950928 216.48101807 C185.56950928 216.48101807 184.57950928 216.48101807 183.55950928 216.48101807 C183.55950928 217.47101807 183.55950928 218.46101807 183.55950928 219.48101807 C182.56950928 219.48101807 181.57950928 219.48101807 180.55950928 219.48101807 C180.55950928 220.47101807 180.55950928 221.46101807 180.55950928 222.48101807 C179.56950928 222.48101807 178.57950928 222.48101807 177.55950928 222.48101807 C177.55950928 223.47101807 177.55950928 224.46101807 177.55950928 225.48101807 C176.23950928 225.48101807 174.91950928 225.48101807 173.55950928 225.48101807 C173.55950928 226.47101807 173.55950928 227.46101807 173.55950928 228.48101807 C172.56950928 228.48101807 171.57950928 228.48101807 170.55950928 228.48101807 C170.55950928 229.80101807 170.55950928 231.12101807 170.55950928 232.48101807 C169.56950928 232.48101807 168.57950928 232.48101807 167.55950928 232.48101807 C167.55950928 233.47101807 167.55950928 234.46101807 167.55950928 235.48101807 C166.56950928 235.48101807 165.57950928 235.48101807 164.55950928 235.48101807 C164.55950928 236.47101807 164.55950928 237.46101807 164.55950928 238.48101807 C163.56950928 238.48101807 162.57950928 238.48101807 161.55950928 238.48101807 C161.55950928 239.47101807 161.55950928 240.46101807 161.55950928 241.48101807 C160.56950928 241.48101807 159.57950928 241.48101807 158.55950928 241.48101807 C158.55950928 242.47101807 158.55950928 243.46101807 158.55950928 244.48101807 C157.56950928 244.48101807 156.57950928 244.48101807 155.55950928 244.48101807 C155.55950928 245.47101807 155.55950928 246.46101807 155.55950928 247.48101807 C154.56950928 247.48101807 153.57950928 247.48101807 152.55950928 247.48101807 C152.55950928 248.47101807 152.55950928 249.46101807 152.55950928 250.48101807 C151.23950928 250.48101807 149.91950928 250.48101807 148.55950928 250.48101807 C148.55950928 251.47101807 148.55950928 252.46101807 148.55950928 253.48101807 C147.56950928 253.48101807 146.57950928 253.48101807 145.55950928 253.48101807 C145.55950928 254.47101807 145.55950928 255.46101807 145.55950928 256.48101807 C143.24950928 256.48101807 140.93950928 256.48101807 138.55950928 256.48101807 C138.55950928 201.04101807 138.55950928 145.60101807 138.55950928 88.48101807 C124.36950928 88.81101807 110.17950928 89.14101807 95.55950928 89.48101807 C95.22950928 90.14101807 94.89950928 90.80101807 94.55950928 91.48101807 C93.89950928 91.48101807 93.23950928 91.48101807 92.55950928 91.48101807 C92.06450928 92.96601807 92.06450928 92.96601807 91.55950928 94.48101807 C90.89950928 94.48101807 90.23950928 94.48101807 89.55950928 94.48101807 C89.06450928 95.96601807 89.06450928 95.96601807 88.55950928 97.48101807 C87.89950928 97.48101807 87.23950928 97.48101807 86.55950928 97.48101807 C86.55950928 98.14101807 86.55950928 98.80101807 86.55950928 99.48101807 C85.89950928 99.48101807 85.23950928 99.48101807 84.55950928 99.48101807 C84.06450928 101.46101807 84.06450928 101.46101807 83.55950928 103.48101807 C82.89950928 103.48101807 82.23950928 103.48101807 81.55950928 103.48101807 C81.43382568 104.35500244 81.43382568 104.35500244 81.30560303 105.24664307 C80.34224231 108.13168143 78.92971224 109.27802532 76.62200928 111.23101807 C75.91173584 111.84461182 75.2014624 112.45820557 74.46966553 113.09039307 C72.55950928 114.48101807 72.55950928 114.48101807 70.55950928 114.48101807 C70.46669678 115.34726807 70.46669678 115.34726807 70.37200928 116.23101807 C69.23218377 119.38745792 67.22356299 120.51469271 64.55950928 122.48101807 C64.00263428 123.05851807 63.44575928 123.63601807 62.87200928 124.23101807 C61.55950928 125.48101807 61.55950928 125.48101807 59.55950928 125.48101807 C59.06450928 126.96601807 59.06450928 126.96601807 58.55950928 128.48101807 C57.23950928 128.48101807 55.91950928 128.48101807 54.55950928 128.48101807 C54.55950928 115.28101807 54.55950928 102.08101807 54.55950928 88.48101807 C26.83950928 88.48101807 -0.88049072 88.48101807 -29.44049072 88.48101807 C-29.44049072 86.17101807 -29.44049072 83.86101807 -29.44049072 81.48101807 C-28.45049072 81.48101807 -27.46049072 81.48101807 -26.44049072 81.48101807 C-26.44049072 80.49101807 -26.44049072 79.50101807 -26.44049072 78.48101807 C-25.45049072 78.48101807 -24.46049072 78.48101807 -23.44049072 78.48101807 C-23.44049072 77.16101807 -23.44049072 75.84101807 -23.44049072 74.48101807 C-22.45049072 74.48101807 -21.46049072 74.48101807 -20.44049072 74.48101807 C-20.44049072 73.49101807 -20.44049072 72.50101807 -20.44049072 71.48101807 C-19.45049072 71.48101807 -18.46049072 71.48101807 -17.44049072 71.48101807 C-17.44049072 70.49101807 -17.44049072 69.50101807 -17.44049072 68.48101807 C-16.45049072 68.48101807 -15.46049072 68.48101807 -14.44049072 68.48101807 C-14.44049072 67.49101807 -14.44049072 66.50101807 -14.44049072 65.48101807 C-13.45049072 65.48101807 -12.46049072 65.48101807 -11.44049072 65.48101807 C-11.44049072 64.49101807 -11.44049072 63.50101807 -11.44049072 62.48101807 C-10.45049072 62.48101807 -9.46049072 62.48101807 -8.44049072 62.48101807 C-8.44049072 61.49101807 -8.44049072 60.50101807 -8.44049072 59.48101807 C-7.12049072 59.48101807 -5.80049072 59.48101807 -4.44049072 59.48101807 C-4.44049072 58.49101807 -4.44049072 57.50101807 -4.44049072 56.48101807 C-3.45049072 56.48101807 -2.46049072 56.48101807 -1.44049072 56.48101807 C-1.44049072 55.49101807 -1.44049072 54.50101807 -1.44049072 53.48101807 C0.53950928 53.48101807 2.51950928 53.48101807 4.55950928 53.48101807 C4.55950928 52.16101807 4.55950928 50.84101807 4.55950928 49.48101807 C5.54950928 49.48101807 6.53950928 49.48101807 7.55950928 49.48101807 C7.55950928 48.49101807 7.55950928 47.50101807 7.55950928 46.48101807 C8.54950928 46.48101807 9.53950928 46.48101807 10.55950928 46.48101807 C10.55950928 45.82101807 10.55950928 45.16101807 10.55950928 44.48101807 C-2.64049072 44.48101807 -15.84049072 44.48101807 -29.44049072 44.48101807 C-29.11049072 42.83101807 -28.78049072 41.18101807 -28.44049072 39.48101807 C-27.78049072 39.48101807 -27.12049072 39.48101807 -26.44049072 39.48101807 C-26.35670166 38.89836182 -26.2729126 38.31570557 -26.18658447 37.71539307 C-25.22322376 34.8303547 -23.81069368 33.68401081 -21.50299072 31.73101807 C-20.79271729 31.11742432 -20.08244385 30.50383057 -19.35064697 29.87164307 C-17.44049072 28.48101807 -17.44049072 28.48101807 -15.44049072 28.48101807 C-15.44049072 27.82101807 -15.44049072 27.16101807 -15.44049072 26.48101807 C-14.45049072 26.48101807 -13.46049072 26.48101807 -12.44049072 26.48101807 C-12.11049072 25.49101807 -11.78049072 24.50101807 -11.44049072 23.48101807 C-17.38049072 23.15101807 -23.32049072 22.82101807 -29.44049072 22.48101807 C-28.42666208 18.42570351 -28.09732114 17.78461574 -25.20220947 15.16851807 C-24.54672119 14.56781494 -23.89123291 13.96711182 -23.21588135 13.34820557 C-22.52687744 12.73203369 -21.83787354 12.11586182 -21.12799072 11.48101807 C-19.77725413 10.25237469 -18.42698082 9.02322177 -17.07720947 7.79351807 C-16.47610352 7.25340088 -15.87499756 6.71328369 -15.25567627 6.15679932 C-13.36898577 4.5219027 -13.36898577 4.5219027 -11.9170723 2.40634537 C-8.14645317 -0.52498386 -4.6504392 -0.0597653 0 0 Z " fill="#6E3AFF" transform="translate(29.44049072265625,-0.48101806640625)"/>
</svg>
