<?xml version="1.0" encoding="UTF-8"?>
<svg version="1.1" xmlns="http://www.w3.org/2000/svg" width="256" height="256">
<path d="M0 0 C1.01461841 -0.00598097 2.02923681 -0.01196195 3.07460123 -0.01812416 C6.46717017 -0.02963505 9.85730424 0.0088107 13.24964905 0.04710388 C15.68414757 0.0490788 18.11865026 0.0479693 20.55314636 0.04400635 C25.79055158 0.04241347 31.02740841 0.06223758 36.26464653 0.10167122 C43.83667434 0.15864737 51.40840724 0.17680002 58.98062617 0.18558716 C71.26691992 0.20089413 83.55288769 0.24744179 95.83900452 0.31370544 C107.7712799 0.37799364 119.70346617 0.42744501 131.63587952 0.45726013 C132.37932678 0.45913611 133.12277405 0.4610121 133.88875002 0.46294492 C140.35603305 0.47913563 146.82331861 0.49420486 153.29060459 0.50916386 C181.121091 0.57498974 208.95071288 0.7144436 236.78114319 0.84178162 C236.78114319 57.60178162 236.78114319 114.36178162 236.78114319 172.84178162 C235.79114319 172.84178162 234.80114319 172.84178162 233.78114319 172.84178162 C233.78114319 173.83178162 233.78114319 174.82178162 233.78114319 175.84178162 C232.79114319 175.84178162 231.80114319 175.84178162 230.78114319 175.84178162 C230.78114319 176.83178162 230.78114319 177.82178162 230.78114319 178.84178162 C229.79114319 178.84178162 228.80114319 178.84178162 227.78114319 178.84178162 C227.78114319 180.16178162 227.78114319 181.48178162 227.78114319 182.84178162 C226.79114319 182.84178162 225.80114319 182.84178162 224.78114319 182.84178162 C224.78114319 183.83178162 224.78114319 184.82178162 224.78114319 185.84178162 C223.79114319 185.84178162 222.80114319 185.84178162 221.78114319 185.84178162 C221.78114319 186.83178162 221.78114319 187.82178162 221.78114319 188.84178162 C220.79114319 188.84178162 219.80114319 188.84178162 218.78114319 188.84178162 C218.78114319 189.83178162 218.78114319 190.82178162 218.78114319 191.84178162 C217.79114319 191.84178162 216.80114319 191.84178162 215.78114319 191.84178162 C215.78114319 192.83178162 215.78114319 193.82178162 215.78114319 194.84178162 C214.79114319 194.84178162 213.80114319 194.84178162 212.78114319 194.84178162 C212.78114319 195.83178162 212.78114319 196.82178162 212.78114319 197.84178162 C211.46114319 197.84178162 210.14114319 197.84178162 208.78114319 197.84178162 C208.78114319 199.82178162 208.78114319 201.80178162 208.78114319 203.84178162 C207.79114319 203.84178162 206.80114319 203.84178162 205.78114319 203.84178162 C205.78114319 205.16178162 205.78114319 206.48178162 205.78114319 207.84178162 C204.79114319 207.84178162 203.80114319 207.84178162 202.78114319 207.84178162 C202.78114319 208.83178162 202.78114319 209.82178162 202.78114319 210.84178162 C201.79114319 210.84178162 200.80114319 210.84178162 199.78114319 210.84178162 C199.78114319 211.83178162 199.78114319 212.82178162 199.78114319 213.84178162 C198.79114319 213.84178162 197.80114319 213.84178162 196.78114319 213.84178162 C196.78114319 214.83178162 196.78114319 215.82178162 196.78114319 216.84178162 C195.79114319 216.84178162 194.80114319 216.84178162 193.78114319 216.84178162 C193.78114319 217.83178162 193.78114319 218.82178162 193.78114319 219.84178162 C192.79114319 219.84178162 191.80114319 219.84178162 190.78114319 219.84178162 C190.78114319 220.83178162 190.78114319 221.82178162 190.78114319 222.84178162 C189.79114319 222.84178162 188.80114319 222.84178162 187.78114319 222.84178162 C187.78114319 223.83178162 187.78114319 224.82178162 187.78114319 225.84178162 C186.46114319 225.84178162 185.14114319 225.84178162 183.78114319 225.84178162 C183.78114319 226.83178162 183.78114319 227.82178162 183.78114319 228.84178162 C182.79114319 228.84178162 181.80114319 228.84178162 180.78114319 228.84178162 C180.78114319 230.16178162 180.78114319 231.48178162 180.78114319 232.84178162 C179.79114319 232.84178162 178.80114319 232.84178162 177.78114319 232.84178162 C177.78114319 233.83178162 177.78114319 234.82178162 177.78114319 235.84178162 C176.79114319 235.84178162 175.80114319 235.84178162 174.78114319 235.84178162 C174.78114319 236.83178162 174.78114319 237.82178162 174.78114319 238.84178162 C173.79114319 238.84178162 172.80114319 238.84178162 171.78114319 238.84178162 C171.78114319 239.83178162 171.78114319 240.82178162 171.78114319 241.84178162 C170.79114319 241.84178162 169.80114319 241.84178162 168.78114319 241.84178162 C168.78114319 242.83178162 168.78114319 243.82178162 168.78114319 244.84178162 C167.79114319 244.84178162 166.80114319 244.84178162 165.78114319 244.84178162 C165.78114319 245.83178162 165.78114319 246.82178162 165.78114319 247.84178162 C164.79114319 247.84178162 163.80114319 247.84178162 162.78114319 247.84178162 C162.78114319 248.83178162 162.78114319 249.82178162 162.78114319 250.84178162 C161.46114319 250.84178162 160.14114319 250.84178162 158.78114319 250.84178162 C158.78114319 251.83178162 158.78114319 252.82178162 158.78114319 253.84178162 C157.79114319 253.84178162 156.80114319 253.84178162 155.78114319 253.84178162 C155.78114319 254.83178162 155.78114319 255.82178162 155.78114319 256.84178162 C153.47114319 256.84178162 151.16114319 256.84178162 148.78114319 256.84178162 C148.78114319 201.40178162 148.78114319 145.96178162 148.78114319 88.84178162 C134.59114319 89.17178162 120.40114319 89.50178162 105.78114319 89.84178162 C105.45114319 90.50178162 105.12114319 91.16178162 104.78114319 91.84178162 C104.12114319 91.84178162 103.46114319 91.84178162 102.78114319 91.84178162 C102.28614319 93.32678162 102.28614319 93.32678162 101.78114319 94.84178162 C101.12114319 94.84178162 100.46114319 94.84178162 99.78114319 94.84178162 C99.28614319 96.32678162 99.28614319 96.32678162 98.78114319 97.84178162 C98.12114319 97.84178162 97.46114319 97.84178162 96.78114319 97.84178162 C96.78114319 98.50178162 96.78114319 99.16178162 96.78114319 99.84178162 C96.12114319 99.84178162 95.46114319 99.84178162 94.78114319 99.84178162 C94.28614319 101.82178162 94.28614319 101.82178162 93.78114319 103.84178162 C93.12114319 103.84178162 92.46114319 103.84178162 91.78114319 103.84178162 C91.65545959 104.71576599 91.65545959 104.71576599 91.52723694 105.60740662 C90.56387622 108.49244498 89.15134615 109.63878887 86.84364319 111.59178162 C86.13336975 112.20537537 85.42309631 112.81896912 84.69129944 113.45115662 C82.78114319 114.84178162 82.78114319 114.84178162 80.78114319 114.84178162 C80.68833069 115.70803162 80.68833069 115.70803162 80.59364319 116.59178162 C79.45381769 119.74822147 77.4451969 120.87545626 74.78114319 122.84178162 C74.22426819 123.41928162 73.66739319 123.99678162 73.09364319 124.59178162 C71.78114319 125.84178162 71.78114319 125.84178162 69.78114319 125.84178162 C69.28614319 127.32678162 69.28614319 127.32678162 68.78114319 128.84178162 C67.46114319 128.84178162 66.14114319 128.84178162 64.78114319 128.84178162 C64.78114319 115.64178162 64.78114319 102.44178162 64.78114319 88.84178162 C37.06114319 88.84178162 9.34114319 88.84178162 -19.21885681 88.84178162 C-19.21885681 86.53178162 -19.21885681 84.22178162 -19.21885681 81.84178162 C-18.22885681 81.84178162 -17.23885681 81.84178162 -16.21885681 81.84178162 C-16.21885681 80.85178162 -16.21885681 79.86178162 -16.21885681 78.84178162 C-15.22885681 78.84178162 -14.23885681 78.84178162 -13.21885681 78.84178162 C-13.21885681 77.52178162 -13.21885681 76.20178162 -13.21885681 74.84178162 C-12.22885681 74.84178162 -11.23885681 74.84178162 -10.21885681 74.84178162 C-10.21885681 73.85178162 -10.21885681 72.86178162 -10.21885681 71.84178162 C-9.22885681 71.84178162 -8.23885681 71.84178162 -7.21885681 71.84178162 C-7.21885681 70.85178162 -7.21885681 69.86178162 -7.21885681 68.84178162 C-6.22885681 68.84178162 -5.23885681 68.84178162 -4.21885681 68.84178162 C-4.21885681 67.85178162 -4.21885681 66.86178162 -4.21885681 65.84178162 C-3.22885681 65.84178162 -2.23885681 65.84178162 -1.21885681 65.84178162 C-1.21885681 64.85178162 -1.21885681 63.86178162 -1.21885681 62.84178162 C-0.22885681 62.84178162 0.76114319 62.84178162 1.78114319 62.84178162 C1.78114319 61.85178162 1.78114319 60.86178162 1.78114319 59.84178162 C3.10114319 59.84178162 4.42114319 59.84178162 5.78114319 59.84178162 C5.78114319 58.85178162 5.78114319 57.86178162 5.78114319 56.84178162 C6.77114319 56.84178162 7.76114319 56.84178162 8.78114319 56.84178162 C8.78114319 55.85178162 8.78114319 54.86178162 8.78114319 53.84178162 C10.76114319 53.84178162 12.74114319 53.84178162 14.78114319 53.84178162 C14.78114319 52.52178162 14.78114319 51.20178162 14.78114319 49.84178162 C15.77114319 49.84178162 16.76114319 49.84178162 17.78114319 49.84178162 C17.78114319 48.85178162 17.78114319 47.86178162 17.78114319 46.84178162 C18.77114319 46.84178162 19.76114319 46.84178162 20.78114319 46.84178162 C20.78114319 46.18178162 20.78114319 45.52178162 20.78114319 44.84178162 C20.03864319 45.31615662 19.29614319 45.79053162 18.53114319 46.27928162 C16.17064304 47.62047488 14.41465842 48.35409361 11.78114319 48.84178162 C11.78114319 47.52178162 11.78114319 46.20178162 11.78114319 44.84178162 C1.55114319 44.84178162 -8.67885681 44.84178162 -19.21885681 44.84178162 C-18.88885681 43.19178162 -18.55885681 41.54178162 -18.21885681 39.84178162 C-17.55885681 39.84178162 -16.89885681 39.84178162 -16.21885681 39.84178162 C-16.13506775 39.25912537 -16.05127869 38.67646912 -15.96495056 38.07615662 C-15.00158985 35.19111825 -13.58905977 34.04477436 -11.28135681 32.09178162 C-10.57108337 31.47818787 -9.86080994 30.86459412 -9.12901306 30.23240662 C-7.21885681 28.84178162 -7.21885681 28.84178162 -5.21885681 28.84178162 C-5.21885681 28.18178162 -5.21885681 27.52178162 -5.21885681 26.84178162 C-4.22885681 26.84178162 -3.23885681 26.84178162 -2.21885681 26.84178162 C-1.88885681 25.85178162 -1.55885681 24.86178162 -1.21885681 23.84178162 C-7.15885681 23.51178162 -13.09885681 23.18178162 -19.21885681 22.84178162 C-18.88885681 21.52178162 -18.55885681 20.20178162 -18.21885681 18.84178162 C-18.40448181 18.14053162 -18.59010681 17.43928162 -18.78135681 16.71678162 C-18.92573181 16.09803162 -19.07010681 15.47928162 -19.21885681 14.84178162 C-18.55885681 14.18178162 -17.89885681 13.52178162 -17.21885681 12.84178162 C-17.87885681 12.51178162 -18.53885681 12.18178162 -19.21885681 11.84178162 C-15.04430434 2.7628163 -9.77067219 -0.21178736 0 0 Z " fill="#6E3AFF" transform="translate(19.218856811523438,-0.8417816162109375)"/>
</svg>
