<?xml version="1.0" encoding="UTF-8"?>
<svg version="1.1" xmlns="http://www.w3.org/2000/svg" width="256" height="256">
<path d="M0 0 C0.98926267 -0.00427212 1.97852534 -0.00854425 2.99776566 -0.01294583 C6.31009886 -0.02117669 9.62116374 0.00631204 12.93338013 0.03364563 C15.30861888 0.03505607 17.68385981 0.0342642 20.05909729 0.03143311 C25.83768766 0.03014646 31.61586311 0.05181968 37.39435868 0.08362141 C44.11953227 0.11939401 50.84464725 0.12684979 57.56990267 0.13256226 C69.56273143 0.1434987 81.5553899 0.17675514 93.54812622 0.22407532 C105.19622969 0.26998781 116.84428662 0.30531406 128.49246216 0.32661438 C129.2180724 0.32795437 129.94368265 0.32929435 130.69128108 0.33067495 C137.00329161 0.34223957 143.31530345 0.35300338 149.62731552 0.36368847 C176.79476428 0.41071596 203.9617615 0.51032378 231.12918091 0.60127258 C231.12918091 57.36127258 231.12918091 114.12127258 231.12918091 172.60127258 C230.13918091 172.60127258 229.14918091 172.60127258 228.12918091 172.60127258 C228.12918091 173.59127258 228.12918091 174.58127258 228.12918091 175.60127258 C227.13918091 175.60127258 226.14918091 175.60127258 225.12918091 175.60127258 C225.12918091 176.59127258 225.12918091 177.58127258 225.12918091 178.60127258 C224.13918091 178.60127258 223.14918091 178.60127258 222.12918091 178.60127258 C222.12918091 179.92127258 222.12918091 181.24127258 222.12918091 182.60127258 C221.13918091 182.60127258 220.14918091 182.60127258 219.12918091 182.60127258 C219.12918091 183.59127258 219.12918091 184.58127258 219.12918091 185.60127258 C218.13918091 185.60127258 217.14918091 185.60127258 216.12918091 185.60127258 C216.12918091 186.59127258 216.12918091 187.58127258 216.12918091 188.60127258 C215.13918091 188.60127258 214.14918091 188.60127258 213.12918091 188.60127258 C213.12918091 189.59127258 213.12918091 190.58127258 213.12918091 191.60127258 C212.13918091 191.60127258 211.14918091 191.60127258 210.12918091 191.60127258 C210.12918091 192.59127258 210.12918091 193.58127258 210.12918091 194.60127258 C209.13918091 194.60127258 208.14918091 194.60127258 207.12918091 194.60127258 C207.12918091 195.59127258 207.12918091 196.58127258 207.12918091 197.60127258 C205.80918091 197.60127258 204.48918091 197.60127258 203.12918091 197.60127258 C203.12918091 199.58127258 203.12918091 201.56127258 203.12918091 203.60127258 C202.13918091 203.60127258 201.14918091 203.60127258 200.12918091 203.60127258 C200.12918091 204.92127258 200.12918091 206.24127258 200.12918091 207.60127258 C199.13918091 207.60127258 198.14918091 207.60127258 197.12918091 207.60127258 C197.12918091 208.59127258 197.12918091 209.58127258 197.12918091 210.60127258 C196.13918091 210.60127258 195.14918091 210.60127258 194.12918091 210.60127258 C194.12918091 211.59127258 194.12918091 212.58127258 194.12918091 213.60127258 C193.13918091 213.60127258 192.14918091 213.60127258 191.12918091 213.60127258 C191.12918091 214.59127258 191.12918091 215.58127258 191.12918091 216.60127258 C190.13918091 216.60127258 189.14918091 216.60127258 188.12918091 216.60127258 C188.12918091 217.59127258 188.12918091 218.58127258 188.12918091 219.60127258 C187.13918091 219.60127258 186.14918091 219.60127258 185.12918091 219.60127258 C185.12918091 220.59127258 185.12918091 221.58127258 185.12918091 222.60127258 C184.13918091 222.60127258 183.14918091 222.60127258 182.12918091 222.60127258 C182.12918091 223.59127258 182.12918091 224.58127258 182.12918091 225.60127258 C180.80918091 225.60127258 179.48918091 225.60127258 178.12918091 225.60127258 C178.12918091 226.59127258 178.12918091 227.58127258 178.12918091 228.60127258 C177.13918091 228.60127258 176.14918091 228.60127258 175.12918091 228.60127258 C175.12918091 229.92127258 175.12918091 231.24127258 175.12918091 232.60127258 C174.13918091 232.60127258 173.14918091 232.60127258 172.12918091 232.60127258 C172.12918091 233.59127258 172.12918091 234.58127258 172.12918091 235.60127258 C171.13918091 235.60127258 170.14918091 235.60127258 169.12918091 235.60127258 C169.12918091 236.59127258 169.12918091 237.58127258 169.12918091 238.60127258 C168.13918091 238.60127258 167.14918091 238.60127258 166.12918091 238.60127258 C166.12918091 239.59127258 166.12918091 240.58127258 166.12918091 241.60127258 C165.13918091 241.60127258 164.14918091 241.60127258 163.12918091 241.60127258 C163.12918091 242.59127258 163.12918091 243.58127258 163.12918091 244.60127258 C162.13918091 244.60127258 161.14918091 244.60127258 160.12918091 244.60127258 C160.12918091 245.59127258 160.12918091 246.58127258 160.12918091 247.60127258 C159.13918091 247.60127258 158.14918091 247.60127258 157.12918091 247.60127258 C157.12918091 248.59127258 157.12918091 249.58127258 157.12918091 250.60127258 C155.80918091 250.60127258 154.48918091 250.60127258 153.12918091 250.60127258 C153.12918091 251.59127258 153.12918091 252.58127258 153.12918091 253.60127258 C152.13918091 253.60127258 151.14918091 253.60127258 150.12918091 253.60127258 C150.12918091 254.59127258 150.12918091 255.58127258 150.12918091 256.60127258 C147.81918091 256.60127258 145.50918091 256.60127258 143.12918091 256.60127258 C143.12918091 201.16127258 143.12918091 145.72127258 143.12918091 88.60127258 C128.93918091 88.93127258 114.74918091 89.26127258 100.12918091 89.60127258 C99.79918091 90.26127258 99.46918091 90.92127258 99.12918091 91.60127258 C98.46918091 91.60127258 97.80918091 91.60127258 97.12918091 91.60127258 C96.63418091 93.08627258 96.63418091 93.08627258 96.12918091 94.60127258 C95.46918091 94.60127258 94.80918091 94.60127258 94.12918091 94.60127258 C93.63418091 96.08627258 93.63418091 96.08627258 93.12918091 97.60127258 C92.46918091 97.60127258 91.80918091 97.60127258 91.12918091 97.60127258 C91.12918091 98.26127258 91.12918091 98.92127258 91.12918091 99.60127258 C90.46918091 99.60127258 89.80918091 99.60127258 89.12918091 99.60127258 C88.63418091 101.58127258 88.63418091 101.58127258 88.12918091 103.60127258 C87.46918091 103.60127258 86.80918091 103.60127258 86.12918091 103.60127258 C86.00349731 104.47525696 86.00349731 104.47525696 85.87527466 105.36689758 C84.91191394 108.25193595 83.49938387 109.39827984 81.19168091 111.35127258 C80.48140747 111.96486633 79.77113403 112.57846008 79.03933716 113.21064758 C77.12918091 114.60127258 77.12918091 114.60127258 75.12918091 114.60127258 C75.03636841 115.46752258 75.03636841 115.46752258 74.94168091 116.35127258 C73.8018554 119.50771244 71.79323462 120.63494722 69.12918091 122.60127258 C68.57230591 123.17877258 68.01543091 123.75627258 67.44168091 124.35127258 C66.12918091 125.60127258 66.12918091 125.60127258 64.12918091 125.60127258 C63.63418091 127.08627258 63.63418091 127.08627258 63.12918091 128.60127258 C61.80918091 128.60127258 60.48918091 128.60127258 59.12918091 128.60127258 C59.12918091 115.40127258 59.12918091 102.20127258 59.12918091 88.60127258 C31.40918091 88.60127258 3.68918091 88.60127258 -24.87081909 88.60127258 C-24.87081909 86.29127258 -24.87081909 83.98127258 -24.87081909 81.60127258 C-23.88081909 81.60127258 -22.89081909 81.60127258 -21.87081909 81.60127258 C-21.87081909 80.61127258 -21.87081909 79.62127258 -21.87081909 78.60127258 C-20.88081909 78.60127258 -19.89081909 78.60127258 -18.87081909 78.60127258 C-18.87081909 77.28127258 -18.87081909 75.96127258 -18.87081909 74.60127258 C-17.88081909 74.60127258 -16.89081909 74.60127258 -15.87081909 74.60127258 C-15.87081909 73.61127258 -15.87081909 72.62127258 -15.87081909 71.60127258 C-14.88081909 71.60127258 -13.89081909 71.60127258 -12.87081909 71.60127258 C-12.87081909 70.61127258 -12.87081909 69.62127258 -12.87081909 68.60127258 C-11.88081909 68.60127258 -10.89081909 68.60127258 -9.87081909 68.60127258 C-9.87081909 67.61127258 -9.87081909 66.62127258 -9.87081909 65.60127258 C-8.88081909 65.60127258 -7.89081909 65.60127258 -6.87081909 65.60127258 C-6.87081909 64.61127258 -6.87081909 63.62127258 -6.87081909 62.60127258 C-5.88081909 62.60127258 -4.89081909 62.60127258 -3.87081909 62.60127258 C-3.87081909 61.61127258 -3.87081909 60.62127258 -3.87081909 59.60127258 C-2.55081909 59.60127258 -1.23081909 59.60127258 0.12918091 59.60127258 C0.12918091 58.61127258 0.12918091 57.62127258 0.12918091 56.60127258 C1.11918091 56.60127258 2.10918091 56.60127258 3.12918091 56.60127258 C3.12918091 55.61127258 3.12918091 54.62127258 3.12918091 53.60127258 C5.10918091 53.60127258 7.08918091 53.60127258 9.12918091 53.60127258 C9.12918091 52.28127258 9.12918091 50.96127258 9.12918091 49.60127258 C10.11918091 49.60127258 11.10918091 49.60127258 12.12918091 49.60127258 C12.12918091 48.61127258 12.12918091 47.62127258 12.12918091 46.60127258 C13.11918091 46.60127258 14.10918091 46.60127258 15.12918091 46.60127258 C15.12918091 45.94127258 15.12918091 45.28127258 15.12918091 44.60127258 C14.38668091 45.07564758 13.64418091 45.55002258 12.87918091 46.03877258 C10.51868076 47.37996585 8.76269614 48.11358458 6.12918091 48.60127258 C6.12918091 47.28127258 6.12918091 45.96127258 6.12918091 44.60127258 C-4.10081909 44.60127258 -14.33081909 44.60127258 -24.87081909 44.60127258 C-24.54081909 42.95127258 -24.21081909 41.30127258 -23.87081909 39.60127258 C-23.21081909 39.60127258 -22.55081909 39.60127258 -21.87081909 39.60127258 C-21.78703003 39.01861633 -21.70324097 38.43596008 -21.61691284 37.83564758 C-20.65355213 34.95060922 -19.24102205 33.80426532 -16.93331909 31.85127258 C-16.22304565 31.23767883 -15.51277222 30.62408508 -14.78097534 29.99189758 C-12.87081909 28.60127258 -12.87081909 28.60127258 -10.87081909 28.60127258 C-10.87081909 27.94127258 -10.87081909 27.28127258 -10.87081909 26.60127258 C-9.88081909 26.60127258 -8.89081909 26.60127258 -7.87081909 26.60127258 C-7.54081909 25.61127258 -7.21081909 24.62127258 -6.87081909 23.60127258 C-12.81081909 23.27127258 -18.75081909 22.94127258 -24.87081909 22.60127258 C-24.54081909 21.28127258 -24.21081909 19.96127258 -23.87081909 18.60127258 C-24.0732019 17.92580383 -24.27558472 17.25033508 -24.48410034 16.55439758 C-24.61171753 15.90986633 -24.73933472 15.26533508 -24.87081909 14.60127258 C-23.72628784 12.89814758 -23.72628784 12.89814758 -22.05831909 11.35127258 C-21.51562378 10.83049133 -20.97292847 10.30971008 -20.41378784 9.77314758 C-18.87081909 8.60127258 -18.87081909 8.60127258 -16.87081909 8.60127258 C-16.54081909 7.61127258 -16.21081909 6.62127258 -15.87081909 5.60127258 C-10.91439443 0.23070021 -7.10574791 -0.11245916 0 0 Z " fill="#6E3AFF" transform="translate(24.870819091796875,-0.6012725830078125)"/>
</svg>
