<?xml version="1.0" encoding="UTF-8"?>
<svg version="1.1" xmlns="http://www.w3.org/2000/svg" width="256" height="256">
<path d="M0 0 C0.87815233 -0.0034177 1.75630466 -0.0068354 2.66106766 -0.01035666 C5.60324999 -0.01694466 8.54451978 0.00505581 11.48661804 0.0269165 C13.59570291 0.02804478 15.70478934 0.02741151 17.81387329 0.02514648 C23.54080466 0.02399765 29.26740171 0.0475347 34.9942553 0.07544231 C40.97868679 0.10042754 46.96312572 0.1027957 52.94760132 0.10754395 C64.28061835 0.11998216 75.61348126 0.15281534 86.94643039 0.1929419 C102.2602276 0.24598783 117.57406688 0.26759824 132.88793278 0.29095078 C157.01689061 0.32857602 181.14552316 0.40826141 205.27445984 0.48101807 C205.27445984 57.24101807 205.27445984 114.00101807 205.27445984 172.48101807 C204.28445984 172.48101807 203.29445984 172.48101807 202.27445984 172.48101807 C202.27445984 173.47101807 202.27445984 174.46101807 202.27445984 175.48101807 C201.28445984 175.48101807 200.29445984 175.48101807 199.27445984 175.48101807 C199.27445984 176.47101807 199.27445984 177.46101807 199.27445984 178.48101807 C198.28445984 178.48101807 197.29445984 178.48101807 196.27445984 178.48101807 C196.27445984 179.80101807 196.27445984 181.12101807 196.27445984 182.48101807 C195.28445984 182.48101807 194.29445984 182.48101807 193.27445984 182.48101807 C193.27445984 183.47101807 193.27445984 184.46101807 193.27445984 185.48101807 C192.28445984 185.48101807 191.29445984 185.48101807 190.27445984 185.48101807 C190.27445984 186.47101807 190.27445984 187.46101807 190.27445984 188.48101807 C189.28445984 188.48101807 188.29445984 188.48101807 187.27445984 188.48101807 C187.27445984 189.47101807 187.27445984 190.46101807 187.27445984 191.48101807 C186.28445984 191.48101807 185.29445984 191.48101807 184.27445984 191.48101807 C184.27445984 192.47101807 184.27445984 193.46101807 184.27445984 194.48101807 C183.28445984 194.48101807 182.29445984 194.48101807 181.27445984 194.48101807 C181.27445984 195.47101807 181.27445984 196.46101807 181.27445984 197.48101807 C179.95445984 197.48101807 178.63445984 197.48101807 177.27445984 197.48101807 C177.27445984 199.46101807 177.27445984 201.44101807 177.27445984 203.48101807 C176.28445984 203.48101807 175.29445984 203.48101807 174.27445984 203.48101807 C174.27445984 204.80101807 174.27445984 206.12101807 174.27445984 207.48101807 C173.28445984 207.48101807 172.29445984 207.48101807 171.27445984 207.48101807 C171.27445984 208.47101807 171.27445984 209.46101807 171.27445984 210.48101807 C170.28445984 210.48101807 169.29445984 210.48101807 168.27445984 210.48101807 C168.27445984 211.47101807 168.27445984 212.46101807 168.27445984 213.48101807 C167.28445984 213.48101807 166.29445984 213.48101807 165.27445984 213.48101807 C165.27445984 214.47101807 165.27445984 215.46101807 165.27445984 216.48101807 C164.28445984 216.48101807 163.29445984 216.48101807 162.27445984 216.48101807 C162.27445984 217.47101807 162.27445984 218.46101807 162.27445984 219.48101807 C161.28445984 219.48101807 160.29445984 219.48101807 159.27445984 219.48101807 C159.27445984 220.47101807 159.27445984 221.46101807 159.27445984 222.48101807 C158.28445984 222.48101807 157.29445984 222.48101807 156.27445984 222.48101807 C156.27445984 223.47101807 156.27445984 224.46101807 156.27445984 225.48101807 C154.95445984 225.48101807 153.63445984 225.48101807 152.27445984 225.48101807 C152.27445984 226.47101807 152.27445984 227.46101807 152.27445984 228.48101807 C151.28445984 228.48101807 150.29445984 228.48101807 149.27445984 228.48101807 C149.27445984 229.80101807 149.27445984 231.12101807 149.27445984 232.48101807 C148.28445984 232.48101807 147.29445984 232.48101807 146.27445984 232.48101807 C146.27445984 233.47101807 146.27445984 234.46101807 146.27445984 235.48101807 C145.28445984 235.48101807 144.29445984 235.48101807 143.27445984 235.48101807 C143.27445984 236.47101807 143.27445984 237.46101807 143.27445984 238.48101807 C142.28445984 238.48101807 141.29445984 238.48101807 140.27445984 238.48101807 C140.27445984 239.47101807 140.27445984 240.46101807 140.27445984 241.48101807 C139.28445984 241.48101807 138.29445984 241.48101807 137.27445984 241.48101807 C137.27445984 242.47101807 137.27445984 243.46101807 137.27445984 244.48101807 C136.28445984 244.48101807 135.29445984 244.48101807 134.27445984 244.48101807 C134.27445984 245.47101807 134.27445984 246.46101807 134.27445984 247.48101807 C133.28445984 247.48101807 132.29445984 247.48101807 131.27445984 247.48101807 C131.27445984 248.47101807 131.27445984 249.46101807 131.27445984 250.48101807 C129.95445984 250.48101807 128.63445984 250.48101807 127.27445984 250.48101807 C127.27445984 251.47101807 127.27445984 252.46101807 127.27445984 253.48101807 C126.28445984 253.48101807 125.29445984 253.48101807 124.27445984 253.48101807 C124.27445984 254.47101807 124.27445984 255.46101807 124.27445984 256.48101807 C121.96445984 256.48101807 119.65445984 256.48101807 117.27445984 256.48101807 C117.27445984 201.04101807 117.27445984 145.60101807 117.27445984 88.48101807 C103.08445984 88.81101807 88.89445984 89.14101807 74.27445984 89.48101807 C73.94445984 90.14101807 73.61445984 90.80101807 73.27445984 91.48101807 C72.61445984 91.48101807 71.95445984 91.48101807 71.27445984 91.48101807 C70.77945984 92.96601807 70.77945984 92.96601807 70.27445984 94.48101807 C69.61445984 94.48101807 68.95445984 94.48101807 68.27445984 94.48101807 C67.77945984 95.96601807 67.77945984 95.96601807 67.27445984 97.48101807 C66.61445984 97.48101807 65.95445984 97.48101807 65.27445984 97.48101807 C65.27445984 98.14101807 65.27445984 98.80101807 65.27445984 99.48101807 C64.61445984 99.48101807 63.95445984 99.48101807 63.27445984 99.48101807 C62.77945984 101.46101807 62.77945984 101.46101807 62.27445984 103.48101807 C61.61445984 103.48101807 60.95445984 103.48101807 60.27445984 103.48101807 C60.14877625 104.35500244 60.14877625 104.35500244 60.02055359 105.24664307 C59.05719288 108.13168143 57.6446628 109.27802532 55.33695984 111.23101807 C54.6266864 111.84461182 53.91641296 112.45820557 53.18461609 113.09039307 C51.27445984 114.48101807 51.27445984 114.48101807 49.27445984 114.48101807 C49.18164734 115.34726807 49.18164734 115.34726807 49.08695984 116.23101807 C47.94713434 119.38745792 45.93851355 120.51469271 43.27445984 122.48101807 C42.71758484 123.05851807 42.16070984 123.63601807 41.58695984 124.23101807 C40.27445984 125.48101807 40.27445984 125.48101807 38.27445984 125.48101807 C37.77945984 126.96601807 37.77945984 126.96601807 37.27445984 128.48101807 C35.95445984 128.48101807 34.63445984 128.48101807 33.27445984 128.48101807 C33.27445984 115.28101807 33.27445984 102.08101807 33.27445984 88.48101807 C5.55445984 88.48101807 -22.16554016 88.48101807 -50.72554016 88.48101807 C-50.72554016 86.17101807 -50.72554016 83.86101807 -50.72554016 81.48101807 C-49.73554016 81.48101807 -48.74554016 81.48101807 -47.72554016 81.48101807 C-47.72554016 80.49101807 -47.72554016 79.50101807 -47.72554016 78.48101807 C-46.73554016 78.48101807 -45.74554016 78.48101807 -44.72554016 78.48101807 C-44.72554016 77.16101807 -44.72554016 75.84101807 -44.72554016 74.48101807 C-43.73554016 74.48101807 -42.74554016 74.48101807 -41.72554016 74.48101807 C-41.72554016 73.49101807 -41.72554016 72.50101807 -41.72554016 71.48101807 C-40.73554016 71.48101807 -39.74554016 71.48101807 -38.72554016 71.48101807 C-38.72554016 70.49101807 -38.72554016 69.50101807 -38.72554016 68.48101807 C-37.73554016 68.48101807 -36.74554016 68.48101807 -35.72554016 68.48101807 C-35.72554016 67.49101807 -35.72554016 66.50101807 -35.72554016 65.48101807 C-34.73554016 65.48101807 -33.74554016 65.48101807 -32.72554016 65.48101807 C-32.72554016 64.49101807 -32.72554016 63.50101807 -32.72554016 62.48101807 C-31.73554016 62.48101807 -30.74554016 62.48101807 -29.72554016 62.48101807 C-29.72554016 61.49101807 -29.72554016 60.50101807 -29.72554016 59.48101807 C-28.40554016 59.48101807 -27.08554016 59.48101807 -25.72554016 59.48101807 C-25.72554016 58.49101807 -25.72554016 57.50101807 -25.72554016 56.48101807 C-24.73554016 56.48101807 -23.74554016 56.48101807 -22.72554016 56.48101807 C-22.72554016 55.49101807 -22.72554016 54.50101807 -22.72554016 53.48101807 C-20.74554016 53.48101807 -18.76554016 53.48101807 -16.72554016 53.48101807 C-16.72554016 52.16101807 -16.72554016 50.84101807 -16.72554016 49.48101807 C-15.73554016 49.48101807 -14.74554016 49.48101807 -13.72554016 49.48101807 C-13.72554016 48.49101807 -13.72554016 47.50101807 -13.72554016 46.48101807 C-12.73554016 46.48101807 -11.74554016 46.48101807 -10.72554016 46.48101807 C-10.72554016 45.82101807 -10.72554016 45.16101807 -10.72554016 44.48101807 C-23.92554016 44.48101807 -37.12554016 44.48101807 -50.72554016 44.48101807 C-50.39554016 42.83101807 -50.06554016 41.18101807 -49.72554016 39.48101807 C-49.06554016 39.48101807 -48.40554016 39.48101807 -47.72554016 39.48101807 C-47.6417511 38.89836182 -47.55796204 38.31570557 -47.47163391 37.71539307 C-46.5082732 34.8303547 -45.09574312 33.68401081 -42.78804016 31.73101807 C-42.07776672 31.11742432 -41.36749329 30.50383057 -40.63569641 29.87164307 C-38.72554016 28.48101807 -38.72554016 28.48101807 -36.72554016 28.48101807 C-36.72554016 27.82101807 -36.72554016 27.16101807 -36.72554016 26.48101807 C-35.73554016 26.48101807 -34.74554016 26.48101807 -33.72554016 26.48101807 C-33.39554016 25.49101807 -33.06554016 24.50101807 -32.72554016 23.48101807 C-32.06554016 23.48101807 -31.40554016 23.48101807 -30.72554016 23.48101807 C-30.39554016 22.49101807 -30.06554016 21.50101807 -29.72554016 20.48101807 C-29.06554016 20.48101807 -28.40554016 20.48101807 -27.72554016 20.48101807 C-27.39554016 19.49101807 -27.06554016 18.50101807 -26.72554016 17.48101807 C-26.06554016 17.48101807 -25.40554016 17.48101807 -24.72554016 17.48101807 C-24.72554016 16.82101807 -24.72554016 16.16101807 -24.72554016 15.48101807 C-23.35054016 13.85601807 -23.35054016 13.85601807 -21.72554016 12.48101807 C-21.06554016 12.48101807 -20.40554016 12.48101807 -19.72554016 12.48101807 C-19.39554016 11.49101807 -19.06554016 10.50101807 -18.72554016 9.48101807 C-18.06554016 9.48101807 -17.40554016 9.48101807 -16.72554016 9.48101807 C-16.39554016 8.49101807 -16.06554016 7.50101807 -15.72554016 6.48101807 C-15.06554016 6.48101807 -14.40554016 6.48101807 -13.72554016 6.48101807 C-13.72554016 5.82101807 -13.72554016 5.16101807 -13.72554016 4.48101807 C-9.61035571 0.07049286 -5.71536943 -0.08139832 0 0 Z " fill="#6E3AFF" transform="translate(50.72554016113281,-0.48101806640625)"/>
</svg>
