<?xml version="1.0" encoding="UTF-8"?>
<svg version="1.1" xmlns="http://www.w3.org/2000/svg" width="256" height="256">
<path d="M0 0 C1.14713512 0.00113916 1.14713512 0.00113916 2.31744468 0.00230134 C3.19924246 -0.00168076 4.08104025 -0.00566286 4.98955917 -0.00976562 C5.96425246 -0.00393994 6.93894575 0.00188574 7.9431752 0.00788796 C9.48932126 0.00532468 9.48932126 0.00532468 11.0667026 0.00270963 C14.54308266 -0.00060167 18.01927245 0.01044538 21.49563491 0.02134621 C23.97865692 0.02190997 26.46167926 0.02159446 28.94470108 0.0204612 C34.30202734 0.02000481 39.65929365 0.02570139 45.0166043 0.03693688 C52.76242576 0.05317106 60.50822363 0.05839775 68.25406025 0.06091286 C80.82027556 0.06529324 93.38646494 0.07861163 105.95266616 0.09751809 C118.16164924 0.11586802 130.37062524 0.13000593 142.57961929 0.13853371 C143.33949406 0.13906971 144.09936882 0.1396057 144.8822701 0.14015794 C150.82473476 0.14431663 156.76719958 0.14823053 162.70966446 0.15206707 C191.85172398 0.17094428 220.99371862 0.21117853 250.13577163 0.24839699 C250.13577163 57.00839699 250.13577163 113.76839699 250.13577163 172.24839699 C249.14577163 172.24839699 248.15577163 172.24839699 247.13577163 172.24839699 C247.13577163 173.23839699 247.13577163 174.22839699 247.13577163 175.24839699 C246.14577163 175.24839699 245.15577163 175.24839699 244.13577163 175.24839699 C244.13577163 176.23839699 244.13577163 177.22839699 244.13577163 178.24839699 C243.14577163 178.24839699 242.15577163 178.24839699 241.13577163 178.24839699 C241.13577163 179.56839699 241.13577163 180.88839699 241.13577163 182.24839699 C240.14577163 182.24839699 239.15577163 182.24839699 238.13577163 182.24839699 C238.13577163 183.23839699 238.13577163 184.22839699 238.13577163 185.24839699 C237.14577163 185.24839699 236.15577163 185.24839699 235.13577163 185.24839699 C235.13577163 186.23839699 235.13577163 187.22839699 235.13577163 188.24839699 C234.14577163 188.24839699 233.15577163 188.24839699 232.13577163 188.24839699 C232.13577163 189.23839699 232.13577163 190.22839699 232.13577163 191.24839699 C231.14577163 191.24839699 230.15577163 191.24839699 229.13577163 191.24839699 C229.13577163 192.23839699 229.13577163 193.22839699 229.13577163 194.24839699 C228.14577163 194.24839699 227.15577163 194.24839699 226.13577163 194.24839699 C226.13577163 195.23839699 226.13577163 196.22839699 226.13577163 197.24839699 C224.81577163 197.24839699 223.49577163 197.24839699 222.13577163 197.24839699 C222.13577163 199.22839699 222.13577163 201.20839699 222.13577163 203.24839699 C221.14577163 203.24839699 220.15577163 203.24839699 219.13577163 203.24839699 C219.13577163 204.56839699 219.13577163 205.88839699 219.13577163 207.24839699 C218.14577163 207.24839699 217.15577163 207.24839699 216.13577163 207.24839699 C216.13577163 208.23839699 216.13577163 209.22839699 216.13577163 210.24839699 C215.14577163 210.24839699 214.15577163 210.24839699 213.13577163 210.24839699 C213.13577163 211.23839699 213.13577163 212.22839699 213.13577163 213.24839699 C212.14577163 213.24839699 211.15577163 213.24839699 210.13577163 213.24839699 C210.13577163 214.23839699 210.13577163 215.22839699 210.13577163 216.24839699 C209.14577163 216.24839699 208.15577163 216.24839699 207.13577163 216.24839699 C207.13577163 217.23839699 207.13577163 218.22839699 207.13577163 219.24839699 C206.14577163 219.24839699 205.15577163 219.24839699 204.13577163 219.24839699 C204.13577163 220.23839699 204.13577163 221.22839699 204.13577163 222.24839699 C203.14577163 222.24839699 202.15577163 222.24839699 201.13577163 222.24839699 C201.13577163 223.23839699 201.13577163 224.22839699 201.13577163 225.24839699 C199.81577163 225.24839699 198.49577163 225.24839699 197.13577163 225.24839699 C197.13577163 226.23839699 197.13577163 227.22839699 197.13577163 228.24839699 C196.14577163 228.24839699 195.15577163 228.24839699 194.13577163 228.24839699 C194.13577163 229.56839699 194.13577163 230.88839699 194.13577163 232.24839699 C193.14577163 232.24839699 192.15577163 232.24839699 191.13577163 232.24839699 C191.13577163 233.23839699 191.13577163 234.22839699 191.13577163 235.24839699 C190.14577163 235.24839699 189.15577163 235.24839699 188.13577163 235.24839699 C188.13577163 236.23839699 188.13577163 237.22839699 188.13577163 238.24839699 C187.14577163 238.24839699 186.15577163 238.24839699 185.13577163 238.24839699 C185.13577163 239.23839699 185.13577163 240.22839699 185.13577163 241.24839699 C184.14577163 241.24839699 183.15577163 241.24839699 182.13577163 241.24839699 C182.13577163 242.23839699 182.13577163 243.22839699 182.13577163 244.24839699 C181.14577163 244.24839699 180.15577163 244.24839699 179.13577163 244.24839699 C179.13577163 245.23839699 179.13577163 246.22839699 179.13577163 247.24839699 C178.14577163 247.24839699 177.15577163 247.24839699 176.13577163 247.24839699 C176.13577163 248.23839699 176.13577163 249.22839699 176.13577163 250.24839699 C174.81577163 250.24839699 173.49577163 250.24839699 172.13577163 250.24839699 C172.13577163 251.23839699 172.13577163 252.22839699 172.13577163 253.24839699 C171.14577163 253.24839699 170.15577163 253.24839699 169.13577163 253.24839699 C169.13577163 254.23839699 169.13577163 255.22839699 169.13577163 256.24839699 C166.82577163 256.24839699 164.51577163 256.24839699 162.13577163 256.24839699 C162.13577163 200.80839699 162.13577163 145.36839699 162.13577163 88.24839699 C147.94577163 88.57839699 133.75577163 88.90839699 119.13577163 89.24839699 C118.80577163 89.90839699 118.47577163 90.56839699 118.13577163 91.24839699 C117.47577163 91.24839699 116.81577163 91.24839699 116.13577163 91.24839699 C115.64077163 92.73339699 115.64077163 92.73339699 115.13577163 94.24839699 C114.47577163 94.24839699 113.81577163 94.24839699 113.13577163 94.24839699 C112.64077163 95.73339699 112.64077163 95.73339699 112.13577163 97.24839699 C111.47577163 97.24839699 110.81577163 97.24839699 110.13577163 97.24839699 C110.13577163 97.90839699 110.13577163 98.56839699 110.13577163 99.24839699 C109.47577163 99.24839699 108.81577163 99.24839699 108.13577163 99.24839699 C107.64077163 101.22839699 107.64077163 101.22839699 107.13577163 103.24839699 C106.47577163 103.24839699 105.81577163 103.24839699 105.13577163 103.24839699 C105.01008804 104.12238137 105.01008804 104.12238137 104.88186538 105.01402199 C103.91850467 107.89906036 102.50597459 109.04540425 100.19827163 110.99839699 C99.48799819 111.61199074 98.77772476 112.22558449 98.04592788 112.85777199 C96.13577163 114.24839699 96.13577163 114.24839699 94.13577163 114.24839699 C94.04295913 115.11464699 94.04295913 115.11464699 93.94827163 115.99839699 C92.80844613 119.15483685 90.79982534 120.28207163 88.13577163 122.24839699 C87.57889663 122.82589699 87.02202163 123.40339699 86.44827163 123.99839699 C85.13577163 125.24839699 85.13577163 125.24839699 83.13577163 125.24839699 C82.64077163 126.73339699 82.64077163 126.73339699 82.13577163 128.24839699 C80.81577163 128.24839699 79.49577163 128.24839699 78.13577163 128.24839699 C78.13577163 115.04839699 78.13577163 101.84839699 78.13577163 88.24839699 C50.41577163 88.24839699 22.69577163 88.24839699 -5.86422837 88.24839699 C-5.86422837 85.93839699 -5.86422837 83.62839699 -5.86422837 81.24839699 C-4.87422837 81.24839699 -3.88422837 81.24839699 -2.86422837 81.24839699 C-2.86422837 80.25839699 -2.86422837 79.26839699 -2.86422837 78.24839699 C-1.87422837 78.24839699 -0.88422837 78.24839699 0.13577163 78.24839699 C0.13577163 76.92839699 0.13577163 75.60839699 0.13577163 74.24839699 C1.12577163 74.24839699 2.11577163 74.24839699 3.13577163 74.24839699 C3.13577163 73.25839699 3.13577163 72.26839699 3.13577163 71.24839699 C4.12577163 71.24839699 5.11577163 71.24839699 6.13577163 71.24839699 C6.13577163 70.25839699 6.13577163 69.26839699 6.13577163 68.24839699 C7.12577163 68.24839699 8.11577163 68.24839699 9.13577163 68.24839699 C9.13577163 67.25839699 9.13577163 66.26839699 9.13577163 65.24839699 C10.12577163 65.24839699 11.11577163 65.24839699 12.13577163 65.24839699 C12.13577163 64.25839699 12.13577163 63.26839699 12.13577163 62.24839699 C13.12577163 62.24839699 14.11577163 62.24839699 15.13577163 62.24839699 C15.13577163 61.25839699 15.13577163 60.26839699 15.13577163 59.24839699 C16.45577163 59.24839699 17.77577163 59.24839699 19.13577163 59.24839699 C19.13577163 58.25839699 19.13577163 57.26839699 19.13577163 56.24839699 C20.12577163 56.24839699 21.11577163 56.24839699 22.13577163 56.24839699 C22.13577163 55.25839699 22.13577163 54.26839699 22.13577163 53.24839699 C24.11577163 53.24839699 26.09577163 53.24839699 28.13577163 53.24839699 C28.13577163 51.92839699 28.13577163 50.60839699 28.13577163 49.24839699 C29.12577163 49.24839699 30.11577163 49.24839699 31.13577163 49.24839699 C31.13577163 48.25839699 31.13577163 47.26839699 31.13577163 46.24839699 C32.12577163 46.24839699 33.11577163 46.24839699 34.13577163 46.24839699 C34.13577163 45.58839699 34.13577163 44.92839699 34.13577163 44.24839699 C33.39327163 44.72277199 32.65077163 45.19714699 31.88577163 45.68589699 C29.52527149 47.02709026 27.76928686 47.76070899 25.13577163 48.24839699 C25.13577163 46.92839699 25.13577163 45.60839699 25.13577163 44.24839699 C14.90577163 44.24839699 4.67577163 44.24839699 -5.86422837 44.24839699 C-5.53422837 42.59839699 -5.20422837 40.94839699 -4.86422837 39.24839699 C-4.20422837 39.24839699 -3.54422837 39.24839699 -2.86422837 39.24839699 C-2.78043931 38.66574074 -2.69665024 38.08308449 -2.61032212 37.48277199 C-1.6469614 34.59773363 -0.23443133 33.45138973 2.07327163 31.49839699 C2.78354507 30.88480324 3.49381851 30.27120949 4.22561538 29.63902199 C6.13577163 28.24839699 6.13577163 28.24839699 8.13577163 28.24839699 C8.13577163 27.58839699 8.13577163 26.92839699 8.13577163 26.24839699 C9.12577163 26.24839699 10.11577163 26.24839699 11.13577163 26.24839699 C11.46577163 25.25839699 11.79577163 24.26839699 12.13577163 23.24839699 C6.19577163 22.91839699 0.25577163 22.58839699 -5.86422837 22.24839699 C-5.53422837 20.92839699 -5.20422837 19.60839699 -4.86422837 18.24839699 C-5.04985337 17.54714699 -5.23547837 16.84589699 -5.42672837 16.12339699 C-5.57110337 15.50464699 -5.71547837 14.88589699 -5.86422837 14.24839699 C-5.20422837 13.58839699 -4.54422837 12.92839699 -3.86422837 12.24839699 C-4.52422837 11.91839699 -5.18422837 11.58839699 -5.86422837 11.24839699 C-5.20422837 9.92839699 -4.54422837 8.60839699 -3.86422837 7.24839699 C-4.52422837 6.91839699 -5.18422837 6.58839699 -5.86422837 6.24839699 C-3.14379225 0.41889103 -3.14379225 0.41889103 0 0 Z " fill="#6E3AFF" transform="translate(5.864228367805481,-0.24839699268341064)"/>
</svg>
